<svg width="1025" height="1024" viewBox="0 0 1025 1024" fill="none" xmlns="http://www.w3.org/2000/svg">
<path d="M144 133H875V879H144V133Z" fill="url(#paint0_angular_290:2)"/>
<path d="M1024 281.719V505.689C1022.22 511.999 1020.19 518.31 1018.17 524.502C1018.09 524.602 1018.04 524.729 1018.05 524.859C1018.05 524.978 1018.05 524.978 1017.93 525.097C992.842 599.693 950.565 667.345 894.513 722.59C838.461 777.835 770.203 819.128 695.252 843.132C682.512 847.18 669.652 850.753 656.555 853.729C656.401 853.79 656.242 853.83 656.078 853.848C619.092 862.33 581.266 866.603 543.319 866.589H538.199C599.287 862.055 658.166 841.814 709.131 807.83C760.095 773.848 801.416 727.274 829.087 672.624V672.505C852.421 626.548 865.467 576.06 867.317 524.552C869.168 473.043 859.779 421.749 839.803 374.236C837.183 361.972 834.087 349.827 830.515 337.92C829.087 332.919 827.42 327.799 825.753 322.798C824.8 319.702 823.728 316.606 822.657 313.629C821.347 310.057 820.156 306.366 818.608 302.794C817.656 300.294 816.703 297.674 815.632 295.055C813.727 290.292 811.702 285.41 809.678 280.528C807.297 275.17 805.035 269.812 802.415 264.573C800.986 261.715 799.676 258.976 798.128 256.119C796.938 253.38 795.39 250.523 793.961 247.784C792.532 245.045 790.984 242.069 789.317 239.211C787.174 234.924 784.674 230.876 782.292 226.828C779.077 221.231 775.624 215.754 772.29 210.277C771.933 210.158 771.933 210.039 771.814 209.682C768.242 204.085 764.551 198.489 760.622 193.25C756.93 187.773 753.001 182.296 748.834 177.057C744.904 171.817 740.856 166.459 736.45 161.339C736.082 161.063 735.794 160.693 735.617 160.268C731.688 155.505 727.758 150.861 723.472 146.337C719.066 141.336 714.661 136.573 709.898 131.81C705.373 126.928 700.73 122.285 695.729 117.641C691.323 113.354 686.679 109.068 681.797 104.901L681.083 104.186C678.583 102.043 676.082 99.7806 673.582 97.7564C670.962 95.4941 668.343 93.3507 665.723 91.3265C660.722 87.1591 655.364 82.9917 650.006 79.0624C647.267 76.9191 644.529 74.776 641.671 72.8708C638.813 70.9657 635.956 68.9416 633.217 66.9174C632.026 66.0839 630.836 65.3693 629.645 64.5359C624.525 61.0828 619.167 57.6301 613.809 54.2961C607.617 50.3668 601.306 46.6755 594.877 43.1034C592.376 41.6746 589.995 40.2459 587.375 39.0552C584.875 37.6264 582.493 36.4354 579.874 35.1257C577.487 33.7534 575.022 32.521 572.492 31.4345C566.895 28.5768 561.061 25.8382 555.226 23.2187C553.559 22.3852 551.773 21.552 549.987 20.8375C545.82 18.9324 541.533 17.3845 537.247 15.5985C536.456 15.1783 535.617 14.8581 534.746 14.6457C531.77 13.3359 528.793 12.1453 525.697 11.0737C522.839 10.0021 519.982 8.93037 516.886 7.97781L516.648 7.85862L516.529 7.7398C513.671 6.66817 510.694 5.71562 507.599 4.76306C502.598 2.97701 497.478 1.54825 492.477 0.000345192H742.166C779.183 -0.0576343 815.848 7.18876 850.062 21.3244C884.274 35.4601 915.361 56.2071 941.542 82.377C967.723 108.547 988.483 139.626 1002.63 173.832C1016.78 208.038 1024.05 244.701 1024 281.719Z" fill="url(#paint1_linear_290:2)"/>
<path d="M1024 505.689V742.161C1024.06 779.189 1016.82 815.868 1002.68 850.089C988.534 884.312 967.777 915.406 941.593 941.59C915.409 967.773 884.315 988.532 850.092 1002.67C815.87 1016.81 779.193 1024.06 742.163 1024H441.632C435.202 1020.66 428.772 1017.21 422.461 1013.52H422.342C422.223 1013.4 422.223 1013.4 422.104 1013.4C310.874 949.255 228.366 845.023 191.466 722.038C184.49 698.809 179.276 675.086 175.868 651.073V650.833C174.201 639.522 172.891 627.973 172.058 616.423C194.415 689.133 239.495 752.759 300.681 797.957C361.867 843.155 435.932 867.544 512.002 867.541C520.932 867.541 529.624 867.303 538.197 866.589H543.317C581.263 866.603 619.089 862.328 656.076 853.848C656.239 853.829 656.4 853.789 656.552 853.729C669.65 850.752 682.51 847.18 695.25 843.132C770.202 819.126 838.459 777.835 894.511 722.59C950.563 667.344 992.839 599.692 1017.93 525.096C1018.05 524.977 1018.05 524.978 1018.05 524.859C1018.04 524.729 1018.08 524.602 1018.17 524.502C1020.19 518.31 1022.19 511.999 1024 505.689Z" fill="url(#paint2_linear_290:2)"/>
<path d="M441.629 1024H281.838C207.091 1024 135.406 994.302 82.5518 941.448C29.6978 888.594 0.00315768 816.909 0 742.162V499.498C4.76279 487.234 10.0019 475.089 15.7173 463.301L15.9553 463.063C19.0511 456.633 22.266 450.323 25.719 444.131C27.7432 440.321 29.8867 436.51 31.9109 432.7C36.1974 425.556 40.3648 418.531 44.8895 411.625C49.176 404.957 53.4624 398.408 58.106 391.859C62.7497 385.311 67.6316 379 72.5134 372.689C77.3953 366.378 82.5155 360.306 87.6355 354.352C92.7555 348.399 98.1136 342.445 103.71 336.611C109.306 330.777 114.783 325.18 120.618 319.703C132.048 308.749 144.074 298.271 156.577 288.388C168.841 278.624 181.581 269.575 194.679 261.002C195.022 260.778 195.38 260.579 195.75 260.406C202.299 256.12 209.086 252.072 215.754 248.023C216.147 247.897 216.511 247.695 216.826 247.428L226.47 242.07C234.805 237.545 243.14 233.259 251.713 229.21C255.762 227.186 259.929 225.4 264.096 223.495C269.216 221.233 274.456 218.97 279.576 216.946C284.457 215.041 289.458 213.136 294.459 211.231L294.697 211.112C297.793 210.04 301.008 208.849 304.104 207.778C308.509 206.349 313.153 204.801 317.678 203.491C320.84 202.336 324.06 201.343 327.322 200.514C335.181 198.252 343.159 196.109 351.136 194.323C350.604 194.787 350.048 195.225 349.469 195.633C275.27 233.858 216.856 296.933 184.428 373.844C152.001 450.755 147.623 536.613 172.056 616.425C172.889 627.974 174.199 639.524 175.866 650.836V651.074C179.274 675.088 184.488 698.81 191.464 722.039C228.368 845.003 310.866 949.216 422.078 1013.36C422.197 1013.36 422.197 1013.36 422.316 1013.47H422.435C428.77 1017.21 435.176 1020.67 441.629 1024Z" fill="url(#paint3_linear_290:2)"/>
<path d="M839.441 372.926C836.94 361.138 833.964 349.35 830.511 337.92C829.439 334.109 828.129 330.061 826.82 326.251C826.343 324.584 825.986 323.393 825.748 322.798C824.795 319.702 823.724 316.606 822.652 313.629C821.342 310.057 820.152 306.366 818.604 302.794C817.651 300.294 816.699 297.674 815.627 295.055C813.722 290.292 811.698 285.41 809.673 280.528C807.292 275.17 804.911 269.812 802.41 264.573C800.981 261.715 799.672 258.976 798.124 256.119C796.814 253.38 795.385 250.522 793.956 247.784C792.527 245.045 790.98 242.069 789.313 239.211C787.169 234.924 784.669 230.876 782.287 226.828C779.073 221.231 775.62 215.754 772.286 210.277C771.928 210.158 771.928 210.039 771.809 209.682C768.118 204.085 764.427 198.608 760.617 193.25C756.807 187.892 752.877 182.415 748.829 177.057C744.781 171.698 740.732 166.578 736.446 161.339C736.078 161.062 735.791 160.693 735.612 160.268C731.564 155.505 727.634 150.861 723.467 146.337C718.942 141.336 714.537 136.573 709.893 131.81C705.249 127.047 700.725 122.285 695.724 117.64C691.318 113.354 686.674 109.068 681.793 104.9L681.078 104.186C678.578 102.043 676.077 99.7802 673.577 97.756L665.718 91.3262C660.717 87.1587 655.359 82.9913 650.001 79.062C647.262 77.0378 644.405 75.0139 641.666 72.8706C638.928 70.7274 635.951 68.9413 633.212 66.9171C632.022 66.0836 630.831 65.369 629.64 64.5355C624.52 61.0825 619.162 57.6297 613.804 54.2957C607.612 50.3665 601.302 46.6753 594.872 43.1032C592.371 41.6744 589.99 40.2455 587.37 39.0548C584.87 37.626 582.489 36.4351 579.869 35.1253C577.482 33.753 575.017 32.5207 572.487 31.4341C566.891 28.5765 561.175 25.8379 555.222 23.2183C553.555 22.3849 551.769 21.5516 549.983 20.8372C545.696 18.9321 541.529 17.146 537.242 15.5981C536.452 15.1779 535.612 14.8577 534.742 14.6453C531.765 13.3356 528.788 12.145 525.692 11.0734C522.835 10.0018 519.977 8.93002 516.881 7.97746L516.643 7.85829L516.524 7.73945C513.666 6.66783 510.69 5.71527 507.594 4.76271C502.593 2.97667 497.473 1.54791 492.472 4.02784e-06H281.719C244.721 -0.00625243 208.085 7.27619 173.902 21.4317C139.72 35.5872 108.661 56.3383 82.4995 82.4995C56.3383 108.661 35.5875 139.72 21.4321 173.902C7.27655 208.085 -0.00625243 244.72 4.02764e-06 281.719V499.497C4.88185 486.995 10.2401 474.731 16.0745 462.824C22.8615 448.773 30.3628 435.199 38.3404 421.983C40.3646 418.53 42.6272 415.077 44.8895 411.624C49.176 404.956 53.4624 398.407 58.1061 391.858C62.7498 385.309 67.3934 378.999 72.5134 372.688C77.2762 366.496 82.2774 360.305 87.6355 354.351C92.9936 348.398 98.1136 342.325 103.71 336.61C109.068 330.775 114.783 325.06 120.618 319.702C132.071 308.665 144.072 298.215 156.577 288.387C168.759 278.685 181.436 269.624 194.56 261.239C194.928 260.921 195.327 260.642 195.75 260.405C202.061 256.238 208.372 252.309 214.921 248.498C235.723 236.51 257.326 225.968 279.575 216.945C284.457 215.04 289.458 213.135 294.459 211.23L294.697 211.11C297.793 210.039 301.008 208.848 304.104 207.777C304.635 207.673 305.154 207.513 305.652 207.3C309.7 205.871 313.748 204.681 317.678 203.49C320.84 202.335 324.06 201.342 327.322 200.513C335.181 198.251 343.159 196.108 351.136 194.322C350.541 194.679 350.065 195.274 349.469 195.631C350.779 194.917 351.97 194.441 353.16 193.726H353.518C402.68 169.004 456.97 156.196 511.999 156.338C601.943 156.236 688.563 190.332 754.306 251.713C754.663 252.07 755.02 252.309 755.14 252.666C775.49 271.707 793.515 293.09 808.84 316.368L808.959 316.487C811.579 320.535 814.198 324.584 816.698 328.751C825.482 343.337 833.202 358.539 839.798 374.236C839.649 373.808 839.529 373.37 839.441 372.926Z" fill="url(#paint4_linear_290:2)"/>
<g style="mix-blend-mode:multiply" opacity="0.08">
<g style="mix-blend-mode:multiply" opacity="0.08">
<path d="M1024 292.555V505.69C993.878 609.85 930.695 701.387 843.986 766.488C757.276 831.591 651.745 866.725 543.317 866.59H538.197C599.285 862.055 658.165 841.815 709.129 807.832C760.093 773.848 801.414 727.275 829.084 672.626C829.203 672.506 829.084 672.506 829.084 672.506C902.907 587.848 973.754 466.516 1024 292.555Z" fill="black"/>
</g>
</g>
<g style="mix-blend-mode:multiply" opacity="0.08">
<g style="mix-blend-mode:multiply" opacity="0.08">
<path d="M580.348 1024H441.632C365.604 984.774 300.903 926.711 253.709 855.356C206.513 784.002 178.402 701.738 172.058 616.423C190.255 675.686 223.673 729.14 268.981 771.452C348.162 882.111 455.731 969.358 580.348 1024Z" fill="black"/>
</g>
</g>
<g style="mix-blend-mode:multiply" opacity="0.08">
<g style="mix-blend-mode:multiply" opacity="0.08">
<path d="M351.136 194.323C350.604 194.787 350.048 195.225 349.469 195.633C311.856 215.074 277.992 241.037 249.451 272.313C174.913 336.968 82.158 440.678 0 601.184V499.498C7.3338 480.491 15.9259 461.995 25.719 444.131C27.7432 440.321 29.8867 436.51 31.9109 432.7C36.1974 425.556 40.3648 418.531 44.8895 411.625C49.176 404.957 53.4624 398.408 58.106 391.859C62.7497 385.311 67.6315 379 72.5134 372.689C77.3953 366.378 82.5155 360.306 87.6355 354.352C92.7555 348.399 98.1136 342.445 103.71 336.611C109.306 330.777 114.783 325.18 120.618 319.703C132.048 308.749 144.074 298.271 156.577 288.388C168.841 278.624 181.581 269.575 194.679 261.002C195.022 260.778 195.38 260.579 195.75 260.406C202.299 256.12 209.086 252.072 215.754 248.023C216.147 247.897 216.511 247.695 216.826 247.428L226.47 242.07C234.805 237.545 243.14 233.259 251.713 229.21C255.762 227.186 259.929 225.4 264.096 223.495C269.216 221.233 274.455 218.97 279.575 216.946C287.672 213.731 295.888 210.635 304.104 207.778C308.509 206.349 313.153 204.801 317.678 203.491C320.84 202.336 324.06 201.343 327.322 200.514C335.157 198.252 343.159 196.109 351.136 194.323Z" fill="black"/>
</g>
</g>
<g style="mix-blend-mode:multiply" opacity="0.08">
<g style="mix-blend-mode:multiply" opacity="0.08">
<path d="M839.797 374.236C833.2 358.539 825.481 343.337 816.697 328.751C814.653 324.349 812.051 320.227 808.958 316.487L808.839 316.368C793.513 293.09 775.489 271.707 755.138 252.666C755.019 252.309 754.662 252.07 754.305 251.713C676.314 169.555 533.55 64.8929 281.837 0H492.471C497.472 1.54791 502.592 2.97667 507.593 4.76271C510.688 5.71527 513.665 6.66783 516.523 7.73945C516.642 7.73945 516.761 7.97746 516.88 7.97746C519.976 8.93002 522.834 10.0018 525.691 11.0734C528.787 12.145 531.764 13.3356 534.741 14.6453C535.611 14.8577 536.45 15.1779 537.241 15.5981C541.527 17.146 545.695 18.9321 549.981 20.8372C551.767 21.5516 553.554 22.3849 555.221 23.2183C561.174 25.8379 566.889 28.5765 572.486 31.4341C575.016 32.5207 577.481 33.753 579.868 35.1253C582.487 36.4351 584.869 37.626 587.369 39.0548C589.989 40.2455 592.37 41.6744 594.871 43.1032C601.3 46.6753 607.611 50.3665 613.803 54.2957C619.161 57.6297 624.519 61.0825 629.639 64.5355C630.83 65.369 632.02 66.0835 633.211 66.9171C635.95 68.9413 638.807 70.8464 641.665 72.8706C644.523 74.8948 647.261 77.0378 650 79.062C655.358 82.9913 660.716 87.1587 665.717 91.3262L673.576 97.756C676.076 99.7802 678.577 102.043 681.077 104.186L681.791 104.9C686.673 109.068 691.317 113.354 695.723 117.64C700.724 122.285 705.367 126.928 709.892 131.81C714.417 136.692 718.941 141.336 723.466 146.337C727.633 150.861 731.563 155.505 735.611 160.268C735.79 160.693 736.077 161.062 736.444 161.339C740.731 166.578 744.779 171.817 748.828 177.057C752.876 182.296 756.805 187.773 760.616 193.25C764.426 198.727 768.117 204.085 771.808 209.682C771.927 210.039 771.927 210.158 772.284 210.277C775.618 215.754 779.071 221.231 782.286 226.828C784.668 230.876 787.168 234.924 789.311 239.211C790.978 242.069 792.407 244.926 793.955 247.784C795.503 250.642 796.813 253.38 798.123 256.119C799.67 258.976 800.98 261.715 802.409 264.573C804.91 269.812 807.291 275.17 809.672 280.528C811.697 285.41 813.721 290.292 815.626 295.055C816.697 297.674 817.65 300.294 818.603 302.794C820.15 306.366 821.341 310.057 822.651 313.629C823.723 316.606 824.794 319.702 825.747 322.798C825.985 323.393 826.342 324.584 826.818 326.251C827.533 328.87 828.604 332.8 829.795 337.205C833.248 350.065 837.892 367.33 839.44 372.926C839.528 373.37 839.648 373.808 839.797 374.236Z" fill="black"/>
</g>
</g>
<g style="mix-blend-mode:multiply" opacity="0.25">
<g style="mix-blend-mode:multiply" opacity="0.25">
<path d="M422.334 1013.52C422.215 1013.4 422.215 1013.4 422.096 1013.4C310.866 949.255 228.358 845.023 191.458 722.037C184.482 698.808 179.268 675.085 175.86 651.072C176.336 652.381 178.122 659.049 181.337 669.646C184.79 681.553 190.148 698.461 197.412 718.108C201.341 727.99 205.27 738.588 210.033 749.542C212.295 755.138 214.915 760.735 217.653 766.45C220.392 772.165 222.892 777.881 225.869 783.715C231.584 795.503 238.252 807.172 245.039 818.96C251.826 830.748 259.328 842.535 267.186 853.847C274.807 865.397 283.023 876.589 291.477 887.306C299.93 898.022 308.503 908.381 317.315 918.026C326.126 927.67 334.58 936.839 343.153 945.293C351.726 953.747 359.703 961.367 367.8 968.511C375.897 975.655 382.803 981.847 389.59 987.443C396.377 993.039 402.092 997.564 406.974 1001.49C416.119 1008.59 421.739 1012.92 422.334 1013.52Z" fill="black"/>
</g>
</g>
<g style="mix-blend-mode:multiply" opacity="0.25">
<g style="mix-blend-mode:multiply" opacity="0.25">
<path d="M1017.92 525.098C992.834 599.694 950.557 667.346 894.505 722.591C838.451 777.837 770.195 819.129 695.243 843.133C682.502 847.182 669.643 850.754 656.545 853.73C658.212 852.897 665.358 850.039 676.669 845.753C682.98 843.133 691.672 840.633 699.888 836.703C708.699 832.536 719.296 828.607 729.655 823.249C734.894 820.629 740.371 817.89 746.087 815.152C751.683 812.056 757.397 808.841 763.351 805.626C769.483 802.446 775.443 798.949 781.211 795.148C787.165 791.338 793.476 787.885 799.549 783.717C805.621 779.55 811.812 775.383 818.004 771.096C824.195 766.81 830.03 761.928 836.221 757.403C842.413 752.878 848.366 747.878 854.32 742.877C860.273 737.876 866.347 732.994 871.824 727.398C877.54 722.039 883.493 717.038 888.97 711.561C894.447 706.084 899.806 700.369 905.164 694.892C915.166 683.223 925.762 672.387 934.573 660.599C943.979 649.407 951.957 637.619 960.054 626.784C963.745 621.187 967.318 615.591 970.771 610.352C974.334 605.327 977.632 600.122 980.653 594.754C986.606 584.514 992.323 575.227 996.728 566.654C1001.13 558.081 1005.54 550.698 1008.28 544.268C1013.28 533.909 1016.85 527.122 1017.92 525.098Z" fill="black"/>
</g>
</g>
<g style="mix-blend-mode:multiply" opacity="0.25">
<g style="mix-blend-mode:multiply" opacity="0.25">
<path d="M294.458 211.23L270.167 225.042C261.951 229.447 254.093 234.448 246.116 239.211C238.138 243.974 230.399 249.094 222.659 253.976L219.682 255.881L217.182 257.667L211.346 261.715L205.632 265.763L202.773 267.788L201.465 268.74C201.584 268.621 201.702 268.502 201.702 268.383L200.511 269.455L173.363 290.292L166.577 295.412L164.79 296.602L164.196 297.079H164.076V297.198L163.958 297.317L163.6 297.555L160.742 300.055L148.002 311.486C143.716 315.296 139.548 319.107 135.143 322.679L128.712 328.275L123.116 333.633L111.328 345.302C107.518 349.469 103.47 353.518 99.5405 357.566L96.5638 360.662L95.9682 361.257L95.8495 361.376H95.7303L95.6111 361.614L95.3731 361.734L94.0635 363.401L88.348 369.83L82.7517 376.141L80.1322 378.999L77.3935 382.213L66.32 395.311L56.0802 408.409L50.722 415.077L45.7208 421.745C42.3869 425.555 39.1724 430.913 35.9575 435.438C29.5277 444.725 22.8595 454.012 15.9534 463.062C19.0492 456.632 22.2642 450.321 25.7173 444.13C27.7414 440.319 29.8849 436.509 31.9091 432.699C36.1956 425.555 40.3631 418.53 44.8877 411.624C49.1742 404.956 53.4605 398.407 58.1042 391.858C62.7479 385.309 67.6296 378.999 72.5115 372.688C77.3934 366.377 82.5136 360.305 87.6336 354.351C92.7536 348.398 98.1118 342.444 103.708 336.61C109.304 330.775 114.781 325.179 120.616 319.702C132.047 308.748 144.073 298.269 156.575 288.387C168.84 278.623 181.58 269.574 194.678 261.001C195.019 260.777 195.378 260.578 195.748 260.405C202.298 256.119 209.084 252.07 215.752 248.022C216.145 247.896 216.51 247.693 216.825 247.427L226.469 242.069C234.804 237.544 243.139 233.257 251.712 229.209C255.76 227.185 259.928 225.399 264.095 223.494C269.215 221.231 274.454 218.969 279.574 216.945C284.456 215.04 289.457 213.135 294.458 211.23Z" fill="black"/>
</g>
</g>
<g style="mix-blend-mode:multiply" opacity="0.25">
<g style="mix-blend-mode:multiply" opacity="0.25">
<path d="M815.629 295.055C811.581 288.029 807.771 281.242 803.603 274.336L800.507 269.216C799.436 267.311 798.721 266.002 797.531 264.215L791.22 254.095L784.909 244.212L778.241 234.21L766.096 216.469L765.858 216.23C765.396 215.767 764.996 215.248 764.668 214.683C764.656 214.592 764.613 214.509 764.548 214.444V214.325L755.618 202.776C754.07 200.751 752.761 198.846 751.094 196.941L746.45 191.107L741.806 185.153L739.782 182.653L737.401 179.676L728.589 169.198L728.351 168.96C728.145 168.692 727.905 168.451 727.637 168.245C727.257 167.827 726.9 167.39 726.565 166.936C722.398 162.53 718.469 157.886 714.539 153.6L701.442 139.907L687.606 126.285L673.913 113.545L673.555 113.188V113.069H673.436C669.983 109.973 666.53 106.877 662.839 103.781L657.481 99.4948L652.004 94.97L641.049 85.9206L635.453 81.5152L629.976 77.348C627.952 75.9191 626.404 74.7282 624.261 73.2994L618.783 69.3702L612.949 65.2026L610.091 63.0595C609.734 62.8214 608.901 62.345 608.901 62.2259L607.353 61.2736L595.446 53.2957L583.896 45.7943L583.539 45.6755C579.848 43.2941 576.156 40.9127 572.108 38.6504L560.201 31.625L548.294 24.7191L536.149 18.1704L535.792 17.932L534.006 16.9797L533.768 16.8605C528.291 14.0028 522.575 10.7879 516.86 7.93023C519.956 8.88279 522.813 9.95452 525.671 11.0261C528.767 12.0978 531.744 13.2883 534.72 14.5981C535.591 14.8105 536.43 15.1307 537.221 15.5509C541.507 17.0988 545.675 18.8848 549.961 20.7899C551.747 21.5043 553.533 22.3376 555.2 23.1711C561.154 25.7906 566.869 28.5293 572.465 31.387C574.996 32.4734 577.46 33.7059 579.848 35.078C582.467 36.3878 584.849 37.5787 587.349 39.0076C589.969 40.1983 592.35 41.6271 594.85 43.0559C601.28 46.628 607.591 50.3192 613.782 54.2485C619.141 57.5824 624.499 61.0353 629.619 64.4883C630.809 65.3218 632 66.0364 633.191 66.8699C635.929 68.894 638.787 70.7992 641.645 72.8233C644.502 74.8475 647.241 76.9907 649.98 79.0148C655.338 82.9441 660.696 87.1116 665.697 91.279L673.555 97.7088C676.056 99.733 678.556 101.995 681.057 104.139L681.771 104.853C686.653 109.021 691.297 113.307 695.702 117.593C700.703 122.237 705.347 126.881 709.872 131.762C714.396 136.644 718.921 141.288 723.446 146.289C727.613 150.814 731.542 155.457 735.591 160.22C735.768 160.645 736.056 161.015 736.424 161.292C740.711 166.531 744.759 171.77 748.807 177.009C752.856 182.248 756.785 187.725 760.595 193.202C764.406 198.68 768.097 204.038 771.788 209.634C771.907 209.991 771.907 210.11 772.264 210.229C775.598 215.707 779.051 221.184 782.266 226.78C784.647 230.828 787.148 234.877 789.291 239.163C790.958 242.021 792.387 244.879 793.935 247.736C795.483 250.594 796.792 253.333 798.102 256.071C799.65 258.929 800.96 261.667 802.389 264.525C804.889 269.764 807.271 275.122 809.652 280.48C811.7 285.41 813.724 290.292 815.629 295.055Z" fill="black"/>
</g>
</g>
<g style="mix-blend-mode:screen" opacity="0.4">
<g style="mix-blend-mode:screen" opacity="0.4">
<path d="M422.073 1013.35C420.644 1012.76 414.215 1010.14 404.451 1005.38C398.736 1002.64 391.949 999.304 384.328 994.898C376.708 990.493 368.135 985.254 359.443 979.181C349.717 972.776 340.337 965.861 331.342 958.463C321.181 950.273 311.443 941.57 302.17 932.387C292.114 922.691 282.613 912.434 273.713 901.667C264.544 890.712 255.733 879.162 247.517 867.256C239.42 855.11 231.8 842.727 225.013 830.225C221.468 824.088 218.249 817.768 215.368 811.293C212.273 804.982 209.415 798.671 206.795 792.48C201.622 780.479 197.129 768.194 193.341 755.687C189.411 743.899 186.792 732.469 184.291 721.991C180.43 705.027 177.882 687.79 176.671 670.433C175.837 659.36 175.837 652.454 175.837 651.025C179.244 675.039 184.458 698.761 191.435 721.991C228.334 844.976 310.842 949.209 422.073 1013.35Z" fill="white"/>
</g>
</g>
<g style="mix-blend-mode:screen" opacity="0.4">
<g style="mix-blend-mode:screen" opacity="0.4">
<path d="M1017.92 525.098C1017.56 527.003 1015.78 534.505 1012.8 546.055C1011.13 552.961 1008.28 561.057 1005.06 570.345C1001.51 580.792 997.42 591.046 992.798 601.065C988.154 612.376 981.606 623.807 975.177 636.19C959.885 662.527 942.143 687.364 922.19 710.371C916.593 716.205 911.116 722.158 905.52 727.993C899.923 733.827 893.732 739.424 887.897 745.02C882.063 750.616 875.514 755.736 869.204 760.856C862.893 765.976 856.701 771.215 850.033 775.74C837.357 785.095 824.158 793.722 810.502 801.578C797.814 808.91 784.737 815.548 771.33 821.462C764.781 824.201 758.708 827.178 752.636 829.559C746.325 831.702 740.37 833.846 734.536 835.87C724.187 839.548 713.657 842.688 702.984 845.276C694.709 847.417 686.321 849.087 677.859 850.277C665.952 852.302 658.45 853.492 656.545 853.73C669.643 850.754 682.502 847.182 695.243 843.133C770.195 819.129 838.451 777.837 894.505 722.591C950.557 667.346 992.834 599.694 1017.92 525.098Z" fill="white"/>
</g>
</g>
<g style="mix-blend-mode:screen" opacity="0.4">
<g style="mix-blend-mode:screen" opacity="0.4">
<path d="M163.604 297.555C163.723 297.317 163.961 297.317 163.961 297.198V297.317L163.604 297.555Z" fill="white"/>
</g>
</g>
<g style="mix-blend-mode:screen" opacity="0.4">
<g style="mix-blend-mode:screen" opacity="0.4">
<path d="M294.463 211.23C289.462 213.135 284.461 215.04 279.579 216.945C257.33 225.968 235.727 236.51 214.924 248.498C208.375 252.309 202.065 256.238 195.754 260.405C195.33 260.642 194.931 260.921 194.563 261.239C181.439 269.624 168.762 278.685 156.58 288.387C144.075 298.215 132.074 308.665 120.621 319.702C114.787 325.06 109.072 330.775 103.714 336.61C98.1173 342.325 92.8781 348.279 87.6391 354.351C82.4 360.424 77.2798 366.496 72.517 372.688C67.397 378.999 62.6343 385.428 58.1097 391.858C53.585 398.288 49.1796 404.956 44.8931 411.624C42.6307 415.077 40.3683 418.53 38.3441 421.983C30.3664 435.199 22.8651 448.773 16.0781 462.824C15.959 462.943 15.84 463.181 15.7209 463.3C19.6502 452.465 23.8175 441.748 28.2231 431.27C30.7235 425.912 32.2716 420.911 35.3674 415.315L39.5348 407.456L43.7024 400.074C46.56 394.835 48.9413 390.429 52.5134 384.833L62.0392 370.664L64.4204 367.092L67.1591 363.281L77.6372 349.708L78.9469 348.041L80.6139 346.016L83.3524 342.682C87.0436 338.396 90.6159 333.99 94.4261 329.704L106.69 317.201L109.667 314.106L111.929 311.843L113.358 310.534L119.669 304.818C123.836 301.008 128.242 297.317 132.647 293.626L145.626 282.552L148.841 279.814L150.031 278.861L150.508 278.623L151.341 277.909L153.127 276.718L160.152 271.836L188.61 253.023L187.419 254.095C188.452 253.196 189.568 252.398 190.753 251.713L192.182 250.761L195.278 249.094L201.469 245.76L207.661 242.426L210.995 240.64L214.21 238.973C222.783 234.686 231.475 231.114 240.286 227.542C249.097 223.97 258.147 220.993 267.196 218.016C276.126 215.278 285.413 213.135 294.463 211.23Z" fill="white"/>
</g>
</g>
<g style="mix-blend-mode:screen" opacity="0.4">
<g style="mix-blend-mode:screen" opacity="0.4">
<path d="M724.778 163.005L727.159 167.53L726.564 166.934C725.741 165.741 725.135 164.411 724.778 163.005Z" fill="white"/>
</g>
</g>
<g style="mix-blend-mode:screen" opacity="0.4">
<g style="mix-blend-mode:screen" opacity="0.4">
<path d="M763.592 212.421L764.069 213.612C763.871 213.232 763.711 212.833 763.592 212.421Z" fill="white"/>
</g>
</g>
<g style="mix-blend-mode:screen" opacity="0.4">
<g style="mix-blend-mode:screen" opacity="0.4">
<path d="M764.79 214.683L769.553 218.493C768.92 218.305 768.317 218.025 767.767 217.659C767.149 217.357 766.587 216.954 766.1 216.469L765.862 216.23L764.79 214.683Z" fill="white"/>
</g>
</g>
<g style="mix-blend-mode:screen" opacity="0.4">
<g style="mix-blend-mode:screen" opacity="0.4">
<path d="M815.628 295.053C813.723 290.291 811.699 285.409 809.675 280.527C807.293 275.169 805.031 269.811 802.411 264.572C800.983 261.714 799.674 258.975 798.126 256.118C796.935 253.379 795.386 250.521 793.957 247.783C792.529 245.044 790.982 242.067 789.315 239.21C787.172 234.923 784.67 230.875 782.289 226.826C779.074 221.23 775.621 215.753 772.287 210.276C771.93 210.157 771.93 210.038 771.81 209.68C768.238 204.084 764.547 198.488 760.618 193.249C756.927 187.772 752.997 182.294 748.83 177.055C744.901 171.816 740.854 166.458 736.448 161.338C736.08 161.062 735.792 160.692 735.615 160.267C731.685 155.504 727.755 150.86 723.468 146.335C719.063 141.334 714.657 136.572 709.894 131.809C705.37 126.927 700.726 122.283 695.725 117.64C691.319 113.353 686.676 109.067 681.794 104.9L681.079 104.185C678.579 102.042 676.079 99.7795 673.578 97.7553C670.959 95.493 668.34 93.3496 665.721 91.3255C660.72 87.158 655.36 82.9906 650.002 79.0613C647.264 76.918 644.525 74.7749 641.667 72.8698C638.81 70.9647 635.952 68.9405 633.213 66.9163C632.023 66.0828 630.832 65.3683 629.641 64.5348C624.521 61.0818 619.163 57.629 613.805 54.295C607.613 50.3657 601.303 46.6745 594.873 43.1024C592.373 41.6735 589.991 40.2448 587.372 39.0541C584.871 37.6253 582.49 36.4344 579.87 35.1246C577.483 33.7523 575.018 32.5199 572.488 31.4334C566.892 28.5758 561.057 25.8372 555.223 23.2176C553.556 22.3841 551.77 21.5509 549.984 20.8365C545.816 18.9314 541.53 17.3835 537.243 15.5974C536.453 15.1772 535.613 14.857 534.744 14.6446C531.767 13.3348 528.789 12.1443 525.694 11.0727C522.836 10.001 519.979 8.92929 516.884 7.97674C523.075 9.16743 529.386 10.4774 535.458 12.2635L538.672 13.2158L538.315 12.9779L544.983 14.883L551.77 17.0261L564.987 21.7889L571.416 24.1704L577.966 26.79C582.134 28.4569 586.419 30.3619 590.825 32.267L597.374 35.2438L604.16 38.6969L616.901 45.3648L618.449 46.1979L620.355 47.2699L623.45 49.0559L629.641 52.6278L636.071 56.5574C637.976 57.629 640.239 59.1768 642.263 60.4865L648.454 64.5348L654.289 68.5832L665.958 77.1562L671.674 81.4429L677.507 86.0864C681.199 88.9441 684.89 92.1592 688.7 95.255L688.938 95.493L689.295 95.9694L690.01 96.6837L689.652 96.2074L704.418 109.543L717.991 123.355L731.327 137.881C735.732 143.001 739.9 147.883 744.067 153.003L744.305 153.48L746.449 157.528C746.091 156.292 745.528 155.124 744.782 154.075L745.139 154.432L754.069 166.458L756.212 169.554L758.714 172.888L762.88 179.08L767.048 185.39C768.477 187.414 769.905 189.796 771.096 191.82L779.074 204.918L779.312 205.394C778.546 204.304 777.576 203.374 776.454 202.655C775.621 202.298 775.264 202.179 775.025 202.06L779.312 205.394L779.431 205.632L779.788 205.87L785.384 216.348L788.004 221.706C789.195 223.969 789.91 225.398 790.744 227.303L795.863 238.019L798.245 243.496L800.625 249.331L805.031 260.404C805.745 262.19 806.58 264.452 807.175 266.238L808.96 271.835C810.151 275.645 811.699 279.574 812.532 283.385L815.628 295.053Z" fill="white"/>
</g>
</g>
<rect x="463" y="366" width="94" height="291" rx="30" fill="url(#paint5_linear_290:2)"/>
<rect x="372" y="317" width="280" height="98" rx="30" fill="url(#paint6_linear_290:2)"/>
<rect x="364" y="626" width="280" height="98" rx="30" fill="url(#paint7_linear_290:2)"/>
<defs>
<radialGradient id="paint0_angular_290:2" cx="0" cy="0" r="1" gradientUnits="userSpaceOnUse" gradientTransform="translate(509.5 506) rotate(90) scale(373 365.5)">
<stop offset="0.334945" stop-color="#0F2027"/>
<stop offset="0.819097" stop-opacity="0.96"/>
</radialGradient>
<linearGradient id="paint1_linear_290:2" x1="758.24" y1="857.056" x2="758.24" y2="98.7911" gradientUnits="userSpaceOnUse">
<stop stop-color="#F80300"/>
<stop offset="1" stop-color="#FCC400"/>
</linearGradient>
<linearGradient id="paint2_linear_290:2" x1="200.172" y1="764.844" x2="995.888" y2="764.844" gradientUnits="userSpaceOnUse">
<stop stop-color="#F80300"/>
<stop offset="1" stop-color="#FCC400"/>
</linearGradient>
<linearGradient id="paint3_linear_290:2" x1="220.815" y1="249.91" x2="220.815" y2="1013.21" gradientUnits="userSpaceOnUse">
<stop stop-color="#F80300"/>
<stop offset="1" stop-color="#FCC400"/>
</linearGradient>
<linearGradient id="paint4_linear_290:2" x1="820.483" y1="249.749" x2="41.9899" y2="249.749" gradientUnits="userSpaceOnUse">
<stop stop-color="#F80300"/>
<stop offset="1" stop-color="#FCC400"/>
</linearGradient>
<linearGradient id="paint5_linear_290:2" x1="510" y1="366" x2="510" y2="657" gradientUnits="userSpaceOnUse">
<stop offset="0.0729167" stop-color="#F84700"/>
<stop offset="0.515625" stop-color="#FCC400" stop-opacity="0.74"/>
<stop offset="0.921875" stop-color="#F95900" stop-opacity="0.961951"/>
</linearGradient>
<linearGradient id="paint6_linear_290:2" x1="512" y1="317" x2="512" y2="415" gradientUnits="userSpaceOnUse">
<stop offset="0.106911" stop-color="#FCC400"/>
<stop offset="1" stop-color="#F80300"/>
</linearGradient>
<linearGradient id="paint7_linear_290:2" x1="504" y1="626" x2="504" y2="724" gradientUnits="userSpaceOnUse">
<stop offset="0.106911" stop-color="#FCC400"/>
<stop offset="1" stop-color="#F80300"/>
</linearGradient>
</defs>
</svg>
